<?xml version="1.0" encoding="utf-8"?>
<!-- Generator: Adobe Illustrator 16.0.0, SVG Export Plug-In . SVG Version: 6.00 Build 0)  -->
<!DOCTYPE svg PUBLIC "-//W3C//DTD SVG 1.1//EN" "http://www.w3.org/Graphics/SVG/1.1/DTD/svg11.dtd">
<svg version="1.1" id="Capa_1" xmlns="http://www.w3.org/2000/svg" xmlns:xlink="http://www.w3.org/1999/xlink" x="0px" y="0px"
	 width="332.7px" height="222px" viewBox="0 0 332.7 222" enable-background="new 0 0 332.7 222" xml:space="preserve">
<g>
	<rect x="15.9" y="17.25" fill="#FFFFFF" width="301.7" height="187.5"/>
	
		<rect id="XMLID_27_" x="15.8" y="28.45" opacity="0.3" fill="none" stroke="#545454" stroke-width="0.7865" stroke-miterlimit="10" enable-background="new    " width="301.9" height="176.3"/>
	
		<line id="XMLID_26_" opacity="0.3" fill="none" stroke="#545454" stroke-width="0.3343" stroke-miterlimit="10" stroke-dasharray="3.1637" enable-background="new    " x1="315.799" y1="174.75" x2="16.8" y2="174.75"/>
	<g id="XMLID_25_" opacity="0.3">
		<line fill="none" x1="52.6" y1="61.45" x2="52.6" y2="204.65"/>
		<g>
			<line fill="none" stroke="#545454" stroke-width="0.3454" stroke-miterlimit="10" x1="52.6" y1="61.45" x2="52.6" y2="63.25"/>
			
				<line fill="none" stroke="#545454" stroke-width="0.3454" stroke-miterlimit="10" stroke-dasharray="3.2521,3.2521" x1="52.6" y1="66.45" x2="52.6" y2="201.45"/>
			<line fill="none" stroke="#545454" stroke-width="0.3454" stroke-miterlimit="10" x1="52.6" y1="202.95" x2="52.6" y2="204.65"/>
		</g>
	</g>
	<g id="XMLID_24_" opacity="0.3">
		<line fill="none" x1="97.3" y1="61.45" x2="97.3" y2="204.65"/>
		<g>
			<line fill="none" stroke="#545454" stroke-width="0.3454" stroke-miterlimit="10" x1="97.3" y1="61.45" x2="97.3" y2="63.25"/>
			
				<line fill="none" stroke="#545454" stroke-width="0.3454" stroke-miterlimit="10" stroke-dasharray="3.2521,3.2521" x1="97.3" y1="66.45" x2="97.3" y2="201.45"/>
			<line fill="none" stroke="#545454" stroke-width="0.3454" stroke-miterlimit="10" x1="97.3" y1="202.95" x2="97.3" y2="204.65"/>
		</g>
	</g>
	<g id="XMLID_23_" opacity="0.3">
		<line fill="none" x1="229.85" y1="61.45" x2="229.85" y2="204.65"/>
		<g>
			
				<line fill="none" stroke="#545454" stroke-width="0.3454" stroke-miterlimit="10" x1="229.85" y1="61.45" x2="229.85" y2="63.25"/>
			
				<line fill="none" stroke="#545454" stroke-width="0.3454" stroke-miterlimit="10" stroke-dasharray="3.2521,3.2521" x1="229.85" y1="66.45" x2="229.85" y2="201.45"/>
			
				<line fill="none" stroke="#545454" stroke-width="0.3454" stroke-miterlimit="10" x1="229.85" y1="202.95" x2="229.85" y2="204.65"/>
		</g>
	</g>
	<g id="XMLID_22_" opacity="0.3">
		<line fill="none" x1="166.25" y1="61.45" x2="166.25" y2="204.65"/>
		<g>
			
				<line fill="none" stroke="#545454" stroke-width="0.3454" stroke-miterlimit="10" x1="166.25" y1="61.45" x2="166.25" y2="63.25"/>
			
				<line fill="none" stroke="#545454" stroke-width="0.3454" stroke-miterlimit="10" stroke-dasharray="3.2521,3.2521" x1="166.25" y1="66.45" x2="166.25" y2="201.45"/>
			
				<line fill="none" stroke="#545454" stroke-width="0.3454" stroke-miterlimit="10" x1="166.25" y1="202.95" x2="166.25" y2="204.65"/>
		</g>
	</g>
	<rect id="XMLID_21_" x="15.5" y="17.25" fill="#667F00" width="302.501" height="40.8"/>
	<g>
		<path fill="#FFFFFF" d="M26.6,27.75c0.6-0.1,1.2-0.1,1.8-0.1s1.2,0,1.8,0.1l3.8,9.5l3.9-9.5c0.5-0.1,1-0.1,1.6-0.1s1.1,0,1.7,0.1
			l0.8,16.5c-0.6,0.101-1.1,0.101-1.7,0.101c-0.6,0-1,0-1.5-0.101l-0.4-11.3l-3.4,7.8c-0.2,0-0.4,0.101-0.7,0.101
			c-0.3,0-0.5,0-0.7,0c-0.2,0-0.4,0-0.6,0s-0.4,0-0.6-0.101l-3.1-7.8L29,44.25c-0.5,0.101-1,0.101-1.4,0.101c-0.5,0-1,0-1.5-0.101
			L26.6,27.75z"/>
		<path fill="#FFFFFF" d="M50.8,36.45c0-0.4-0.1-0.7-0.2-0.9c-0.1-0.199-0.3-0.399-0.5-0.5c-0.2-0.1-0.5-0.199-0.8-0.3
			c-0.3,0-0.7-0.1-1-0.1c-0.8,0-1.7,0.2-2.6,0.5c-0.2-0.4-0.4-0.8-0.5-1.101c-0.1-0.3-0.2-0.8-0.2-1.3c0.7-0.2,1.3-0.399,2-0.5
			c0.7-0.1,1.3-0.2,1.9-0.2c1.6,0,2.8,0.4,3.7,1.2s1.3,2,1.3,3.7v7c-0.5,0.2-1.2,0.3-2,0.5c-0.8,0.2-1.6,0.2-2.6,0.2
			c-0.8,0-1.5-0.101-2.2-0.2c-0.7-0.1-1.2-0.4-1.7-0.7s-0.8-0.7-1.1-1.2c-0.3-0.5-0.4-1.1-0.4-1.899s0.2-1.4,0.5-1.9
			c0.3-0.5,0.7-0.899,1.2-1.2c0.5-0.3,1.1-0.5,1.7-0.6c0.6-0.1,1.2-0.2,1.8-0.2c0.4,0,0.9,0,1.5,0.101V36.55h0.2V36.45z M50.8,38.75
			c-0.2,0-0.4-0.1-0.6-0.1c-0.2,0-0.4,0-0.6,0c-0.8,0-1.3,0.1-1.8,0.399c-0.5,0.301-0.7,0.7-0.7,1.301c0,0.399,0.1,0.699,0.3,0.899
			c0.2,0.2,0.4,0.4,0.6,0.5c0.2,0.101,0.5,0.2,0.8,0.2c0.3,0,0.5,0,0.7,0s0.5,0,0.7-0.1c0.2,0,0.4-0.101,0.6-0.101V38.75z"/>
		<path fill="#FFFFFF" d="M63.6,42.25c1.4,0,2.4,0.3,3.1,0.9c0.7,0.6,1,1.399,1,2.5c0,0.6-0.2,1.2-0.5,1.8c-0.3,0.5-0.8,1-1.4,1.3
			c-0.6,0.3-1.3,0.7-2.1,0.9c-0.8,0.3-1.7,0.3-2.6,0.3s-1.7-0.1-2.3-0.2c-0.6-0.1-1.2-0.3-1.6-0.6c-0.4-0.3-0.7-0.601-0.9-1
			c-0.2-0.3-0.3-0.7-0.3-1.2c0-0.7,0.2-1.3,0.5-1.7c0.3-0.399,0.8-0.8,1.3-1.2c-0.4-0.199-0.6-0.5-0.8-0.8s-0.3-0.7-0.3-1.2
			c0-0.6,0.1-1.1,0.4-1.399c0.3-0.3,0.6-0.7,1.1-1.101c-0.5-0.399-1-0.899-1.2-1.399s-0.4-1.2-0.4-1.8c0-0.601,0.1-1.2,0.3-1.7
			c0.2-0.5,0.6-1,1-1.3c0.4-0.4,1-0.7,1.6-0.9s1.3-0.3,2.1-0.3c0.8,0,1.5,0.1,2.1,0.399c0.6,0.301,1.2,0.5,1.6,0.9
			c0.3-0.4,0.7-0.7,1.1-0.9c0.4-0.199,1-0.3,1.7-0.3c0,0.2,0.1,0.4,0.1,0.601c0,0.199,0,0.399,0,0.6s0,0.5,0,0.7s0,0.5-0.1,0.8h-1.9
			c0.1,0.2,0.1,0.3,0.2,0.6c0.1,0.2,0.1,0.5,0.1,0.9c0,0.6-0.1,1.2-0.3,1.7c-0.2,0.5-0.5,1-1,1.3s-1,0.7-1.6,0.9
			c-0.6,0.199-1.3,0.3-2.1,0.3c-0.7,0-1.3-0.101-1.8-0.2c-0.3,0.2-0.4,0.3-0.5,0.5c-0.1,0.2-0.1,0.4-0.1,0.5c0,0.2,0.1,0.4,0.2,0.6
			c0.1,0.2,0.5,0.2,1,0.301L63.6,42.25z M60.6,44.75c-0.3,0-0.6,0-0.8,0.101c-0.2,0.1-0.4,0.199-0.5,0.399
			c-0.1,0.101-0.2,0.3-0.3,0.5s-0.1,0.3-0.1,0.5c0,0.601,0.2,1,0.7,1.2s1,0.3,1.8,0.3c1,0,1.7-0.2,2.3-0.5c0.6-0.3,0.9-0.7,0.9-1.2
			c0-0.199,0-0.3-0.1-0.399c0-0.101-0.1-0.3-0.2-0.4c0-0.1-0.3-0.3-0.4-0.3c-0.2-0.1-0.4-0.1-0.8-0.1L60.6,44.75z M61.6,38.45
			c0.6,0,1.1-0.2,1.4-0.6c0.3-0.4,0.4-0.9,0.4-1.5c0-0.601-0.1-1.2-0.4-1.5c-0.3-0.4-0.7-0.601-1.4-0.601c-0.7,0-1.1,0.2-1.4,0.601
			c-0.3,0.399-0.4,0.899-0.4,1.5c0,0.6,0.1,1.199,0.4,1.5C60.5,38.25,60.9,38.45,61.6,38.45z"/>
		<path fill="#FFFFFF" d="M69.9,32.45c0.2,0,0.4-0.1,0.6-0.1s0.5,0,0.7,0c0.3,0,0.5,0,0.7,0c0.2,0,0.4,0.1,0.6,0.1
			c0,0.1,0.1,0.2,0.1,0.3c0,0.101,0.1,0.3,0.1,0.5s0.1,0.3,0.1,0.5s0,0.3,0.1,0.4c0.2-0.2,0.3-0.5,0.6-0.7s0.5-0.4,0.7-0.6
			c0.2-0.2,0.6-0.301,1-0.4c0.4-0.1,0.7-0.2,1.2-0.2c1.3,0,2.4,0.4,3,1.101c0.7,0.699,1,1.899,1,3.5v7.6c-0.6,0.1-1.1,0.1-1.6,0.1
			s-1.1,0-1.6-0.1v-6.7c0-0.8-0.1-1.5-0.4-1.899c-0.3-0.4-0.7-0.7-1.3-0.7c-0.3,0-0.5,0-0.8,0.1c-0.3,0.101-0.5,0.2-0.7,0.4
			s-0.4,0.5-0.5,0.899c-0.1,0.4-0.2,0.9-0.2,1.601v6.2c-0.6,0.1-1.1,0.1-1.6,0.1s-1.1,0-1.6-0.1v-11.9H69.9z"/>
		<path fill="#FFFFFF" d="M84.1,34.95h-1.5c0-0.2-0.1-0.4-0.1-0.6c0-0.2,0-0.4,0-0.601c0-0.399,0-0.8,0.1-1.2h4.7v11.9
			c-0.6,0.1-1.1,0.1-1.6,0.1s-1,0-1.6-0.1V34.95z M83.6,30.45c-0.1-0.5-0.1-1-0.1-1.5s0-1,0.1-1.5c0.3,0,0.5-0.1,0.8-0.1
			c0.3,0,0.6,0,0.8,0c0.3,0,0.5,0,0.9,0c0.3,0,0.6,0.1,0.9,0.1c0,0.3,0.1,0.5,0.1,0.8s0,0.5,0,0.8c0,0.2,0,0.5,0,0.801
			c0,0.3,0,0.5-0.1,0.8c-0.3,0-0.5,0.1-0.8,0.1c-0.3,0-0.6,0-0.8,0c-0.2,0-0.5,0-0.8,0C84.3,30.45,83.9,30.45,83.6,30.45z"/>
		<path fill="#FFFFFF" d="M90.8,34.95h-1.5l-0.1-0.5l4.3-5.5H94v3.5h2.8c0,0.2,0.1,0.4,0.1,0.6c0,0.2,0,0.4,0,0.601s0,0.399,0,0.6
			s0,0.4-0.1,0.7H94v4.7c0,0.5,0,0.899,0.1,1.2c0.1,0.3,0.2,0.5,0.3,0.699c0.1,0.2,0.3,0.301,0.5,0.301c0.2,0.1,0.5,0.1,0.8,0.1
			c0.2,0,0.5,0,0.7-0.1c0.2,0,0.4-0.101,0.6-0.101c0.1,0.3,0.2,0.601,0.2,0.9s0.1,0.6,0.1,0.8s0,0.3,0,0.4c0,0.1,0,0.199,0,0.3
			c-0.7,0.2-1.4,0.3-2.2,0.3c-1.4,0-2.5-0.3-3.2-1c-0.7-0.7-1.1-1.7-1.1-3.2V34.95z"/>
		<path fill="#FFFFFF" d="M99.1,32.45c0.6-0.1,1.1-0.1,1.6-0.1s1.1,0,1.6,0.1v6.3c0,0.601,0,1.101,0.1,1.601s0.3,0.699,0.5,1
			c0.2,0.3,0.5,0.399,0.8,0.5c0.3,0.1,0.7,0.1,1.1,0.1c0.6,0,1-0.1,1.4-0.2v-9.3c0.6-0.1,1.1-0.1,1.6-0.1s1.1,0,1.6,0.1v11.4
			c-0.5,0.199-1.1,0.3-1.9,0.5c-0.8,0.199-1.6,0.199-2.5,0.199c-0.8,0-1.5-0.1-2.3-0.199c-0.7-0.101-1.4-0.4-1.9-0.801
			c-0.5-0.399-1-1-1.3-1.699c-0.2-0.7-0.5-1.9-0.5-3.101v-6.3H99.1z"/>
		<path fill="#FFFFFF" d="M119.6,27.45c0.3,0,0.5-0.1,0.8-0.1c0.3,0,0.5,0,0.8,0c0.3,0,0.5,0,0.8,0s0.6,0,0.8,0.1v16.5
			c-0.7,0.2-1.5,0.4-2.2,0.5c-0.7,0.1-1.6,0.2-2.7,0.2c-0.8,0-1.6-0.101-2.3-0.3c-0.7-0.2-1.4-0.601-2-1.101s-1-1.1-1.3-1.899
			c-0.3-0.801-0.5-1.7-0.5-2.801c0-0.899,0.1-1.699,0.4-2.5c0.3-0.8,0.7-1.399,1.2-2c0.5-0.6,1.2-1,1.9-1.3c0.8-0.3,1.6-0.5,2.5-0.5
			c0.3,0,0.6,0,0.9,0c0.3,0,0.6,0.101,0.9,0.101V27.45L119.6,27.45z M119.6,34.75c-0.3-0.1-0.6-0.1-0.7-0.1s-0.4,0-0.7,0
			c-0.5,0-0.9,0.1-1.3,0.3s-0.7,0.5-0.9,0.8s-0.4,0.8-0.5,1.2c-0.1,0.5-0.2,1-0.2,1.5c0,0.6,0.1,1.2,0.2,1.6
			c0.2,0.4,0.4,0.801,0.6,1c0.3,0.301,0.6,0.4,1,0.601c0.4,0.1,0.8,0.2,1.2,0.2c0.3,0,0.5,0,0.7,0s0.5-0.101,0.7-0.101v-7H119.6z"/>
	</g>
	<path fill="#545454" d="M33.05,197.95c0.7,0,1.3-0.1,1.8-0.2c0.6-0.1,1.1-0.3,1.5-0.7c0.4-0.3,0.7-0.699,1-1.199
		c0.2-0.5,0.4-1.2,0.4-1.9c0-1-0.301-1.7-0.9-2.2s-1.5-0.8-2.7-0.8c-0.3,0-0.7,0-1,0s-0.7,0.1-1,0.1l-0.2-0.3l4.301-6.399h-6.5
		c0-0.101,0-0.2,0-0.301c0-0.1,0-0.199,0-0.3c0-0.1,0-0.2,0-0.399c0-0.101,0-0.301,0-0.4h9l0.1,0.2l-4.5,6.5c0.1,0,0.2,0,0.3,0
		c0.101,0,0.2,0,0.3,0c0.801,0,1.5,0.1,2,0.399c0.5,0.301,1,0.601,1.4,1c0.4,0.4,0.6,0.9,0.8,1.4s0.2,1,0.2,1.4c0,1-0.2,1.8-0.5,2.5
		c-0.3,0.699-0.8,1.3-1.4,1.699c-0.6,0.4-1.199,0.801-2,1c-0.8,0.2-1.5,0.301-2.399,0.301c-0.3,0-0.7,0-1,0s-0.7-0.101-1.101-0.101
		c-0.399-0.1-0.699-0.2-1-0.3c-0.3-0.1-0.6-0.2-0.899-0.3c0.1-0.4,0.3-0.9,0.6-1.4c0.4,0.2,0.9,0.4,1.4,0.5
		C31.85,197.95,32.35,197.95,33.05,197.95z"/>
	<path fill="#545454" d="M69.1,195.95l-0.2-0.2l6.8-13.1c0.2,0,0.4,0.1,0.6,0.2c0.2,0.1,0.5,0.199,0.7,0.3l-5.7,11.3h5.6v-4.8
		c0.3,0,0.5-0.101,0.8-0.101c0.3,0,0.5,0,0.8,0.101v4.8h2.4c0,0.3,0.1,0.5,0.1,0.7s0,0.5-0.1,0.7h-2.4v3.1c-0.1,0-0.3,0-0.4,0
		s-0.3,0-0.4,0c-0.1,0-0.2,0-0.4,0c-0.1,0-0.3,0-0.4,0v-3.1h-7.8V195.95z"/>
	<path fill="#545454" d="M136.675,193.95c0,1-0.2,1.8-0.5,2.5s-0.8,1.3-1.4,1.7c-0.6,0.399-1.199,0.8-2,1
		c-0.8,0.2-1.5,0.3-2.399,0.3c-0.7,0-1.4-0.1-2-0.2c-0.601-0.1-1.101-0.3-1.5-0.5c0-0.2,0.1-0.5,0.2-0.7
		c0.1-0.199,0.199-0.5,0.3-0.699c0.399,0.199,0.8,0.3,1.3,0.399c0.5,0.101,1,0.101,1.8,0.101c0.601,0,1.2-0.101,1.8-0.2
		c0.5-0.101,1-0.3,1.4-0.601c0.4-0.3,0.7-0.699,1-1.199c0.2-0.5,0.4-1.101,0.4-1.9c0-0.5-0.101-0.9-0.2-1.3
		c-0.101-0.4-0.3-0.8-0.601-1.101c-0.3-0.3-0.699-0.6-1.199-0.8s-1.2-0.3-1.9-0.3c-0.5,0-1,0-1.4,0.1
		c-0.5,0.101-0.899,0.101-1.1,0.2l-0.2-0.2l0.3-7.5h7.4c0,0.101,0,0.2,0,0.301c0,0.1,0,0.199,0,0.3c0,0.1,0,0.2,0,0.399
		c0,0.101,0,0.301,0,0.4h-6l-0.2,4.7c0.3-0.101,0.601-0.101,1-0.101c0.4,0,0.601,0,0.7,0c0.8,0,1.5,0.101,2.1,0.301
		c0.601,0.199,1.2,0.5,1.601,1c0.399,0.399,0.8,0.899,1,1.5C136.675,192.45,136.675,193.25,136.675,193.95z"/>
	<path fill="#545454" d="M192.8,191.45c0-1.3,0.201-2.5,0.5-3.7c0.301-1.2,0.801-2.2,1.5-3.2c0.701-0.899,1.601-1.699,2.601-2.3
		c1.101-0.6,2.3-1,3.8-1.2c0,0.101,0.1,0.301,0.1,0.5c0,0.2,0,0.301,0,0.4c0,0.2,0,0.4,0,0.5c-1,0.1-1.799,0.3-2.6,0.7
		c-0.8,0.399-1.4,0.8-2,1.399c-0.6,0.601-1,1.2-1.4,2c-0.399,0.7-0.6,1.5-0.799,2.4c0,0.2-0.101,0.3-0.101,0.5s-0.101,0.3-0.101,0.5
		c0.4-0.7,0.9-1.3,1.701-1.8c0.799-0.5,1.6-0.7,2.6-0.7c0.6,0,1.199,0.1,1.699,0.3c0.601,0.2,1.101,0.5,1.5,0.9
		c0.5,0.399,0.801,1,1.101,1.6c0.3,0.7,0.399,1.5,0.399,2.4c0,0.899-0.199,1.7-0.5,2.3c-0.299,0.7-0.699,1.2-1.199,1.7
		s-1.1,0.8-1.7,1s-1.3,0.399-1.899,0.399c-0.801,0-1.5-0.1-2.201-0.3c-0.699-0.2-1.199-0.6-1.699-1.1s-0.801-1.2-1.1-2
		C192.901,193.65,192.8,192.65,192.8,191.45z M198.401,188.75c-0.5,0-1,0.101-1.399,0.3c-0.5,0.2-0.9,0.5-1.201,0.801
		c-0.299,0.3-0.6,0.8-0.799,1.3c-0.201,0.5-0.301,1-0.301,1.6c0,1.3,0.301,2.2,0.9,2.8c0.6,0.601,1.5,0.9,2.6,0.9
		c0.5,0,1-0.1,1.5-0.3s0.9-0.4,1.2-0.8c0.3-0.301,0.601-0.7,0.8-1.2c0.2-0.5,0.301-1,0.301-1.7s-0.101-1.3-0.301-1.8
		c-0.199-0.5-0.4-0.9-0.8-1.2c-0.3-0.3-0.7-0.5-1.101-0.7C199.401,188.55,198.901,188.75,198.401,188.75z"/>
	<path fill="#545454" d="M271.825,199.25c-0.299-0.1-0.6-0.2-0.799-0.3c-0.201-0.1-0.4-0.2-0.602-0.4l6.301-14.1h-8.301
		c0-0.1,0-0.2,0-0.3c0-0.101,0-0.2,0-0.3c0-0.301,0-0.5,0.102-0.801h10.5l0.1,0.101L271.825,199.25z"/>
	<g>
		<path id="XMLID_20_" fill="#FFFFFF" stroke="#545454" stroke-miterlimit="10" d="M34.2,105.53c6.014,0,10.871,4.879,10.871,10.869
			c0,6.016-4.881,10.871-10.871,10.871c-6.014,0-10.87-4.881-10.87-10.871C23.33,110.386,28.186,105.53,34.2,105.53z"/>
		<path id="XMLID_18_" fill="#FFFFFF" stroke="#545454" stroke-miterlimit="10" d="M74.949,101.378
			c8.311,0,15.022,6.742,15.022,15.021c0,8.311-6.744,15.021-15.022,15.021c-8.309,0-15.021-6.744-15.021-15.021
			C59.928,108.091,66.64,101.378,74.949,101.378z"/>
		<path id="XMLID_6_" fill="#FFFFFF" stroke="#545454" stroke-miterlimit="10" d="M198.049,94.364
			c12.191,0,22.037,9.891,22.037,22.035c0,12.191-9.893,22.035-22.037,22.035c-12.189,0-22.035-9.893-22.035-22.035
			C176.014,104.21,185.86,94.364,198.049,94.364z"/>
		<path id="XMLID_5_" fill="#FFFFFF" stroke="#545454" stroke-miterlimit="10" d="M131.774,96.505
			c11.006,0,19.896,8.932,19.896,19.895c0,11.008-8.932,19.896-19.896,19.896c-11.006,0-19.895-8.934-19.895-19.896
			C111.879,105.396,120.768,96.505,131.774,96.505z"/>
		<path id="XMLID_4_" fill="#FFFFFF" stroke="#545454" stroke-miterlimit="10" d="M273.774,90.702
			c14.215,0,25.697,11.535,25.697,25.695c0,14.215-11.537,25.699-25.697,25.699c-14.213,0-25.695-11.543-25.695-25.699
			C248.079,102.185,259.561,90.702,273.774,90.702z"/>
	</g>
</g>
</svg>
