<?xml version="1.0" encoding="utf-8"?>
<!-- Generator: Adobe Illustrator 16.0.0, SVG Export Plug-In . SVG Version: 6.00 Build 0)  -->
<!DOCTYPE svg PUBLIC "-//W3C//DTD SVG 1.1//EN" "http://www.w3.org/Graphics/SVG/1.1/DTD/svg11.dtd">
<svg version="1.1" id="Capa_1" xmlns="http://www.w3.org/2000/svg" xmlns:xlink="http://www.w3.org/1999/xlink" x="0px" y="0px"
	 width="512px" height="222px" viewBox="0 0 512 222" style="enable-background:new 0 0 512 222;" xml:space="preserve">
<style type="text/css">
<![CDATA[
	.st0{fill:#EBEB00;}
	.st1{fill:#545454;}
	.st2{fill:#C800F6;}
	.st3{fill:#FF0000;}
	.st4{fill:#FFFFFF;}
	.st5{fill:#667F00;}
	.st6{fill:#0000FF;}
	.st7{fill:#00FF00;}
	.st8{opacity:0.3;fill:none;stroke:#545454;stroke-width:0.7865;stroke-miterlimit:10;enable-background:new    ;}
]]>
</style>
<g id="XMLID_5524_">
	<rect id="XMLID_5330_" x="23.4" y="48.7" class="st4" width="463.4" height="156.1"/>
	<g id="XMLID_2551_">
		<rect id="XMLID_5443_" x="23.4" y="19" class="st8" width="465.2" height="185.7"/>
		<g>
			<path id="XMLID_5442_" class="st2" d="M443.4,97.7c13.9,0,25.2,11.3,25.2,25.2c0,13.9-11.3,25.2-25.2,25.2
				c-13.9,0-25.2-11.3-25.2-25.2C418.2,108.8,429.5,97.7,443.4,97.7z"/>
			<path id="XMLID_5441_" class="st6" d="M350.5,97.7c13.9,0,25.2,11.3,25.2,25.2c0,13.9-11.3,25.2-25.2,25.2s-25.2-11.3-25.2-25.2
				C325.3,108.8,336.6,97.7,350.5,97.7z"/>
			<path id="XMLID_5440_" class="st7" d="M257.7,97.7c13.9,0,25.2,11.3,25.2,25.2c0,13.9-11.3,25.2-25.2,25.2
				c-13.9,0-25.2-11.3-25.2-25.2C232.5,108.8,243.8,97.7,257.7,97.7z"/>
			<path id="XMLID_5439_" class="st0" d="M164.8,97.7c13.9,0,25.2,11.3,25.2,25.2c0,13.9-11.3,25.2-25.2,25.2
				c-13.9,0-25.2-11.3-25.2-25.2C139.6,108.8,150.9,97.7,164.8,97.7z"/>
			<path id="XMLID_5438_" class="st3" d="M72,97.7c13.9,0,25.2,11.3,25.2,25.2c0,13.9-11.3,25.2-25.2,25.2s-25.2-11.3-25.2-25.2
				C46.8,108.8,58.1,97.7,72,97.7z"/>
			<g id="XMLID_5427_">
				<path id="XMLID_5435_" class="st1" d="M43.4,175.3c0-1.1,0.1-2,0.3-3c0.2-1,0.6-1.7,1.1-2.3c0.4-0.6,1.1-1.2,1.7-1.5
					s1.5-0.5,2.3-0.5c0.9,0,1.7,0.2,2.3,0.5s1.3,0.9,1.7,1.5c0.4,0.6,0.9,1.5,1.1,2.3c0.2,1,0.3,1.9,0.3,3c0,1.1-0.1,2-0.3,3
					c-0.2,1-0.6,1.7-1.1,2.3c-0.4,0.6-1.1,1.2-1.7,1.5c-0.6,0.3-1.5,0.5-2.3,0.5c-0.9,0-1.7-0.2-2.3-0.5c-0.6-0.3-1.3-0.9-1.7-1.5
					c-0.4-0.6-0.9-1.5-1.1-2.3C43.6,177.5,43.4,176.5,43.4,175.3z M49,169.3c-1.3,0-2.2,0.5-2.9,1.5c-0.6,1-1.1,2.6-1.1,4.5
					c0,2,0.3,3.5,1,4.5c0.6,1,1.6,1.5,2.9,1.5c1.3,0,2.2-0.5,2.9-1.5c0.6-1,1-2.6,1-4.5c0-2-0.3-3.5-1-4.5
					C51.2,169.8,50.3,169.3,49,169.3z"/>
				<path id="XMLID_5433_" class="st1" d="M68.3,175.3c0,0.1,0,0.2,0,0.3c0,0.1,0,0.3,0,0.4c0,0.1,0,0.2,0,0.4c0,0.1,0,0.2,0,0.3
					h-5.9c0-0.1,0-0.2,0-0.3c0-0.1,0-0.3,0-0.4c0-0.1,0-0.2,0-0.4c0-0.1,0-0.3,0-0.3H68.3z"/>
				<path id="XMLID_5431_" class="st1" d="M80,182.8c0.6,0,1.3-0.1,1.8-0.2c0.5-0.1,1.1-0.3,1.5-0.6c0.4-0.3,0.7-0.7,1-1.2
					c0.2-0.5,0.3-1.2,0.3-1.9c0-1-0.3-1.7-1-2.1c-0.6-0.5-1.5-0.7-2.7-0.7c-0.3,0-0.6,0-1,0s-0.6,0.1-1,0.1l-0.1-0.3l4.3-6.3h-6.4
					c0-0.1,0-0.2,0-0.3c0-0.1,0-0.2,0-0.3c0-0.1,0-0.2,0-0.3c0-0.1,0-0.2,0-0.3h8.8l0.1,0.2l-4.4,6.4c0.1,0,0.2,0,0.2,0
					c0.1,0,0.2,0,0.2,0c0.7,0,1.5,0.1,2,0.4c0.5,0.3,1,0.6,1.4,1.1c0.3,0.4,0.6,0.9,0.7,1.4c0.1,0.5,0.2,1,0.2,1.4
					c0,1-0.2,1.8-0.5,2.5c-0.3,0.6-0.7,1.3-1.4,1.7c-0.5,0.4-1.2,0.7-1.9,1c-0.7,0.2-1.5,0.3-2.3,0.3c-0.3,0-0.6,0-1,0
					c-0.3,0-0.7-0.1-1.1-0.1c-0.3-0.1-0.6-0.1-1-0.2c-0.3-0.1-0.6-0.2-0.9-0.3c0.1-0.4,0.3-0.9,0.6-1.4c0.4,0.2,0.9,0.3,1.4,0.4
					C78.7,182.8,79.4,182.8,80,182.8z"/>
				<path id="XMLID_5428_" class="st1" d="M89.6,175.3c0-1.1,0.1-2,0.3-3c0.2-1,0.6-1.7,1.1-2.3c0.4-0.6,1.1-1.2,1.7-1.5
					c0.6-0.3,1.5-0.5,2.3-0.5s1.7,0.2,2.3,0.5c0.7,0.3,1.3,0.9,1.7,1.5c0.4,0.6,0.9,1.5,1.1,2.3c0.2,1,0.3,1.9,0.3,3
					c0,1.1-0.1,2-0.3,3c-0.2,1-0.6,1.7-1.1,2.3c-0.4,0.6-1.1,1.2-1.7,1.5c-0.6,0.3-1.5,0.5-2.3,0.5s-1.7-0.2-2.3-0.5
					c-0.6-0.3-1.3-0.9-1.7-1.5c-0.4-0.6-0.9-1.5-1.1-2.3C89.7,177.5,89.6,176.5,89.6,175.3z M95.1,169.3c-1.3,0-2.2,0.5-2.9,1.5
					c-0.6,1-1.1,2.6-1.1,4.5c0,2,0.3,3.5,1.1,4.5c0.6,1,1.6,1.5,2.9,1.5c1.3,0,2.2-0.5,2.9-1.5c0.6-1,1.1-2.6,1.1-4.5
					c0-2-0.3-3.5-1.1-4.5C97.3,169.8,96.3,169.3,95.1,169.3z"/>
			</g>
			<g id="XMLID_5414_">
				<path id="XMLID_5425_" class="st1" d="M139.1,182.8c0.6,0,1.3-0.1,1.8-0.2c0.5-0.1,1.1-0.3,1.5-0.6s0.7-0.7,1-1.2
					c0.2-0.5,0.3-1.2,0.3-1.9c0-1-0.3-1.7-1-2.1c-0.6-0.5-1.5-0.7-2.7-0.7c-0.3,0-0.6,0-1,0c-0.3,0-0.6,0.1-1,0.1l-0.1-0.3l4.3-6.3
					h-6.4c0-0.1,0-0.2,0-0.3c0-0.1,0-0.2,0-0.3c0-0.1,0-0.2,0-0.3c0-0.1,0-0.2,0-0.3h8.8l0.1,0.2l-4.4,6.4c0.1,0,0.1,0,0.2,0
					s0.2,0,0.2,0c0.7,0,1.5,0.1,2,0.4c0.5,0.3,1,0.6,1.4,1.1c0.3,0.4,0.6,0.9,0.7,1.4s0.2,1,0.2,1.4c0,1-0.2,1.8-0.5,2.5
					c-0.3,0.6-0.7,1.3-1.4,1.7c-0.5,0.4-1.2,0.7-1.9,1c-0.7,0.2-1.5,0.3-2.3,0.3c-0.3,0-0.6,0-1,0c-0.3,0-0.6-0.1-1.1-0.1
					c-0.3-0.1-0.7-0.1-1.1-0.2c-0.4-0.1-0.6-0.2-0.9-0.3c0.1-0.4,0.3-0.9,0.6-1.4c0.4,0.2,0.9,0.3,1.4,0.4
					C137.8,182.8,138.5,182.8,139.1,182.8z"/>
				<path id="XMLID_5422_" class="st1" d="M148.7,175.3c0-1.1,0.1-2,0.3-3s0.6-1.7,1.1-2.3c0.4-0.6,1.1-1.2,1.7-1.5
					c0.6-0.3,1.5-0.5,2.3-0.5c0.9,0,1.7,0.2,2.3,0.5s1.3,0.9,1.7,1.5c0.4,0.6,0.9,1.5,1.1,2.3c0.2,1,0.3,1.9,0.3,3
					c0,1.1-0.1,2-0.3,3c-0.2,1-0.6,1.7-1.1,2.3c-0.4,0.6-1.1,1.2-1.7,1.5c-0.6,0.3-1.5,0.5-2.3,0.5c-0.9,0-1.7-0.2-2.3-0.5
					c-0.6-0.3-1.3-0.9-1.7-1.5c-0.4-0.6-0.9-1.5-1.1-2.3C148.8,177.5,148.7,176.5,148.7,175.3z M154.3,169.3c-1.3,0-2.2,0.5-2.9,1.5
					c-0.6,1-1.1,2.6-1.1,4.5c0,2,0.3,3.5,1,4.5c0.6,1,1.6,1.5,2.9,1.5c1.3,0,2.2-0.5,2.9-1.5c0.6-1,1-2.6,1-4.5c0-2-0.3-3.5-1-4.5
					C156.5,169.8,155.5,169.3,154.3,169.3z"/>
				<path id="XMLID_5420_" class="st1" d="M167.9,175.3c0,0.1,0,0.2,0,0.3c0,0.1,0,0.3,0,0.4c0,0.1,0,0.2,0,0.4c0,0.1,0,0.2,0,0.3
					H162c0-0.1,0-0.2,0-0.3c0-0.1,0-0.3,0-0.4c0-0.1,0-0.2,0-0.4c0-0.1,0-0.3,0-0.3H167.9z"/>
				<path id="XMLID_5418_" class="st1" d="M174,184.3c-0.3-0.1-0.5-0.2-0.7-0.2c-0.2-0.1-0.4-0.2-0.6-0.4l6.2-14h-8.2
					c0-0.1,0-0.2,0-0.3c0-0.1,0-0.2,0-0.3c0-0.3,0-0.5,0.1-0.7h10.3l0.1,0.1L174,184.3z"/>
				<path id="XMLID_5415_" class="st1" d="M183.6,175.3c0-1.1,0.1-2,0.3-3c0.2-1,0.6-1.7,1.1-2.3c0.4-0.6,1.1-1.2,1.7-1.5
					c0.6-0.3,1.5-0.5,2.3-0.5s1.7,0.2,2.3,0.5c0.6,0.3,1.3,0.9,1.7,1.5c0.4,0.6,0.9,1.5,1.1,2.3c0.2,1,0.3,1.9,0.3,3
					c0,1.1-0.1,2-0.3,3c-0.2,1-0.6,1.7-1.1,2.3c-0.4,0.6-1.1,1.2-1.7,1.5c-0.6,0.3-1.5,0.5-2.3,0.5s-1.7-0.2-2.3-0.5
					c-0.6-0.3-1.3-0.9-1.7-1.5c-0.4-0.6-0.9-1.5-1.1-2.3C183.8,177.5,183.6,176.5,183.6,175.3z M189.1,169.3c-1.3,0-2.2,0.5-2.9,1.5
					c-0.6,1-1.1,2.6-1.1,4.5c0,2,0.3,3.5,1,4.5c0.6,1,1.6,1.5,2.9,1.5s2.2-0.5,2.9-1.5c0.6-1,1.1-2.6,1.1-4.5c0-2-0.3-3.5-1.1-4.5
					C191.3,169.8,190.4,169.3,189.1,169.3z"/>
			</g>
			<g id="XMLID_5399_">
				<path id="XMLID_5412_" class="st1" d="M227,184.3c-0.3-0.1-0.5-0.2-0.7-0.2c-0.2-0.1-0.4-0.2-0.6-0.4l6.2-14h-8.2
					c0-0.1,0-0.2,0-0.3c0-0.1,0-0.2,0-0.3c0-0.3,0-0.5,0.1-0.7h10.3l0.1,0.1L227,184.3z"/>
				<path id="XMLID_5409_" class="st1" d="M234.8,175.3c0-1.1,0.1-2,0.3-3c0.2-1,0.6-1.7,1.1-2.3c0.4-0.6,1.1-1.2,1.7-1.5
					s1.5-0.5,2.3-0.5c0.8,0,1.7,0.2,2.3,0.5s1.3,0.9,1.7,1.5c0.4,0.6,0.9,1.5,1.1,2.3c0.2,1,0.3,1.9,0.3,3c0,1.1-0.1,2-0.3,3
					c-0.2,1-0.6,1.7-1.1,2.3c-0.4,0.6-1.1,1.2-1.7,1.5c-0.6,0.3-1.5,0.5-2.3,0.5c-0.8,0-1.7-0.2-2.3-0.5c-0.6-0.3-1.3-0.9-1.7-1.5
					c-0.4-0.6-0.9-1.5-1.1-2.3C235,177.5,234.8,176.5,234.8,175.3z M240.4,169.5c-1.3,0-2.2,0.5-2.9,1.5c-0.6,1-1.1,2.6-1.1,4.5
					c0,2,0.3,3.5,1,4.5c0.6,1,1.6,1.5,2.9,1.5c1.3,0,2.2-0.5,2.9-1.5c0.6-1,1.1-2.6,1.1-4.5c0-2-0.3-3.5-1.1-4.5
					C242.6,170,241.7,169.5,240.4,169.5z"/>
				<path id="XMLID_5407_" class="st1" d="M254.6,175.5c0,0.1,0,0.2,0,0.3c0,0.2,0,0.3,0,0.4s0,0.2,0,0.4c0,0.1,0,0.2,0,0.3h-5.9
					c0-0.1,0-0.2,0-0.3c0-0.1,0-0.3,0-0.4s0-0.2,0-0.4c0-0.1,0-0.3,0-0.3H254.6z"/>
				<path id="XMLID_5405_" class="st1" d="M259.3,172c-0.1-0.1-0.2-0.3-0.3-0.5s-0.2-0.4-0.2-0.6l5.6-2.9h0.1v13.2h3.2
					c0,0.1,0,0.2,0,0.3c0,0.1,0,0.2,0,0.3c0,0.1,0,0.2,0,0.3c0,0.1,0,0.2,0,0.3h-8.2c0-0.1,0-0.3,0-0.6c0-0.1,0-0.3,0-0.4
					s0-0.2,0-0.3h3.4v-10.9L259.3,172z"/>
				<path id="XMLID_5403_" class="st1" d="M269.3,182.7l-0.1-0.3l4.4-4.7c0.4-0.5,0.9-1,1.3-1.4c0.4-0.4,0.7-0.9,1.1-1.4
					c0.3-0.4,0.5-0.9,0.7-1.4c0.2-0.4,0.2-0.9,0.2-1.4c0-1-0.3-1.6-0.9-2.1c-0.5-0.4-1.4-0.6-2.5-0.6c-0.7,0-1.4,0.1-2,0.3
					c-0.5,0.2-1.1,0.4-1.5,0.6c-0.1-0.2-0.1-0.4-0.2-0.6c-0.1-0.2-0.1-0.4-0.2-0.6c0.4-0.2,1-0.4,1.6-0.6c0.6-0.2,1.5-0.3,2.3-0.3
					c0.7,0,1.4,0.1,2,0.2c0.6,0.2,1.2,0.4,1.6,0.7c0.4,0.3,0.7,0.7,1,1.3c0.2,0.5,0.3,1.2,0.3,1.8c0,0.5-0.1,1-0.2,1.4
					c-0.1,0.4-0.3,1-0.6,1.4c-0.3,0.5-0.6,1-1.1,1.5c-0.4,0.5-0.9,1.1-1.5,1.6l-2.9,3.1h6.8c0,0.1,0,0.2,0,0.4c0,0.1,0,0.3,0,0.4
					c0,0.1,0,0.2,0,0.3s0,0.2,0,0.3h-9.7v0.1H269.3z"/>
				<path id="XMLID_5400_" class="st1" d="M280.9,175.3c0-1.1,0.1-2,0.3-3s0.6-1.7,1.1-2.3c0.4-0.6,1.1-1.2,1.7-1.5s1.5-0.5,2.3-0.5
					s1.7,0.2,2.3,0.5c0.6,0.3,1.3,0.9,1.7,1.5c0.4,0.6,0.9,1.5,1.1,2.3c0.2,1,0.3,1.9,0.3,3c0,1.1-0.1,2-0.3,3
					c-0.2,1-0.6,1.7-1.1,2.3c-0.4,0.6-1.1,1.2-1.7,1.5c-0.6,0.3-1.5,0.5-2.3,0.5s-1.7-0.2-2.3-0.5c-0.6-0.3-1.3-0.9-1.7-1.5
					c-0.4-0.6-0.9-1.5-1.1-2.3C281,177.5,280.9,176.5,280.9,175.3z M286.4,169.5c-1.3,0-2.2,0.5-2.9,1.5c-0.6,1-1.1,2.6-1.1,4.5
					c0,2,0.3,3.5,1,4.5c0.6,1,1.6,1.5,2.9,1.5s2.2-0.5,2.9-1.5c0.6-1,1-2.6,1-4.5c0-2-0.3-3.5-1-4.5
					C288.6,170,287.6,169.5,286.4,169.5z"/>
			</g>
			<g id="XMLID_5387_">
				<path id="XMLID_5397_" class="st1" d="M420.4,181c0-0.2-0.1-0.5-0.1-0.7c0-0.4,0-0.6,0.1-0.9l7.8-3.2l-7.8-3.1
					c-0.1-0.2-0.1-0.5-0.1-0.7c0-0.2,0-0.4,0-0.5c0-0.1,0-0.2,0.1-0.3l9.4,3.8c0,0.1,0,0.2,0.1,0.3c0,0.1,0,0.3,0,0.5
					c0,0.3,0,0.6-0.1,0.9L420.4,181z"/>
				<path id="XMLID_5395_" class="st1" d="M430.5,173.5c-0.1-0.1-0.2-0.3-0.3-0.5c-0.1-0.2-0.2-0.4-0.2-0.6l5.6-2.9h0.1v13.2h3.2
					c0,0.1,0,0.2,0,0.3c0,0.1,0,0.2,0,0.3s0,0.2,0,0.3c0,0.1,0,0.2,0,0.3h-8.2c0-0.1,0-0.3,0-0.6c0-0.1,0-0.3,0-0.4
					c0-0.1,0-0.2,0-0.3h3.4v-11L430.5,173.5z"/>
				<path id="XMLID_5391_" class="st1" d="M447.6,184.3c-0.6,0-1.3-0.1-2-0.2c-0.6-0.1-1.3-0.4-1.7-0.7c-0.5-0.3-1-0.7-1.3-1.3
					c-0.3-0.5-0.4-1.2-0.4-2c0-0.6,0.1-1.3,0.3-1.7c0.2-0.5,0.5-1,0.9-1.3c0.3-0.3,0.7-0.6,1.2-0.9c0.4-0.2,0.9-0.4,1.3-0.6
					c-0.4-0.2-0.9-0.3-1.2-0.6c-0.3-0.2-0.6-0.5-1-0.9c-0.3-0.3-0.5-0.6-0.6-1.1c-0.1-0.4-0.2-0.9-0.2-1.4s0.1-1.1,0.3-1.5
					c0.2-0.4,0.5-0.9,1-1.2c0.4-0.3,0.9-0.5,1.5-0.7c0.5-0.2,1.2-0.2,1.9-0.2c0.6,0,1.3,0.1,1.9,0.2c0.5,0.2,1.1,0.4,1.5,0.7
					s0.7,0.7,1,1.2c0.2,0.4,0.3,1,0.3,1.5s-0.1,1-0.2,1.4c-0.1,0.4-0.3,0.7-0.6,1.1c-0.3,0.3-0.6,0.6-1,0.9
					c-0.3,0.2-0.7,0.4-1.2,0.6c0.4,0.2,0.9,0.3,1.3,0.6c0.4,0.2,0.9,0.5,1.2,0.9c0.3,0.3,0.6,0.7,0.9,1.3c0.2,0.5,0.3,1.1,0.3,1.7
					c0,0.7-0.1,1.5-0.4,2c-0.3,0.5-0.7,1-1.3,1.3c-0.5,0.3-1.1,0.5-1.7,0.7C448.9,184.3,448.3,184.3,447.6,184.3z M447.6,183
					c1.3,0,2.1-0.3,2.8-0.9c0.6-0.5,1-1.3,1-2.2c0-0.5-0.1-1-0.3-1.3c-0.2-0.4-0.4-0.7-0.7-1c-0.3-0.3-0.7-0.5-1.2-0.7
					c-0.4-0.2-1-0.4-1.5-0.5c-0.5,0.2-1,0.3-1.5,0.5c-0.4,0.2-0.9,0.4-1.2,0.7s-0.6,0.6-0.7,1.1c-0.2,0.4-0.3,0.9-0.3,1.3
					c0,1,0.3,1.7,1,2.2C445.4,182.7,446.4,183,447.6,183z M447.6,169.3c-1.1,0-1.8,0.2-2.3,0.7c-0.5,0.4-0.7,1.1-0.7,1.9
					c0,0.4,0.1,0.7,0.3,1.1c0.2,0.3,0.4,0.6,0.7,0.9c0.3,0.2,0.6,0.4,1,0.6c0.4,0.2,0.7,0.3,1.2,0.4c0.4-0.1,0.7-0.2,1.2-0.4
					c0.4-0.2,0.7-0.3,1-0.6c0.3-0.2,0.5-0.5,0.7-0.9c0.2-0.3,0.3-0.6,0.3-1.1c0-0.7-0.2-1.4-0.7-1.9
					C449.4,169.5,448.6,169.3,447.6,169.3z"/>
				<path id="XMLID_5388_" class="st1" d="M455.6,176.8c0-1.1,0.1-2,0.3-3c0.2-1,0.6-1.7,1.1-2.3c0.4-0.6,1.1-1.2,1.7-1.5
					c0.6-0.3,1.5-0.5,2.3-0.5s1.7,0.2,2.3,0.5c0.6,0.3,1.3,0.9,1.7,1.5c0.4,0.6,0.9,1.5,1.1,2.3c0.2,1,0.3,1.9,0.3,3
					c0,1.1-0.1,2-0.3,3c-0.2,1-0.6,1.7-1.1,2.3c-0.4,0.6-1.1,1.2-1.7,1.5c-0.6,0.3-1.5,0.5-2.3,0.5s-1.7-0.2-2.3-0.5
					c-0.6-0.3-1.3-0.9-1.7-1.5c-0.4-0.6-0.9-1.5-1.1-2.3C455.7,179,455.6,178,455.6,176.8z M461.1,171c-1.3,0-2.2,0.5-2.9,1.5
					c-0.6,1-1.1,2.6-1.1,4.5c0,2,0.3,3.5,1,4.5c0.6,1,1.6,1.5,2.9,1.5s2.2-0.5,2.9-1.5c0.6-1,1-2.6,1-4.5c0-2-0.3-3.5-1-4.5
					C463.2,171.5,462.3,171,461.1,171z"/>
			</g>
			<g id="XMLID_5368_">
				<path id="XMLID_5385_" class="st1" d="M311.5,173.5c-0.1-0.1-0.2-0.3-0.3-0.5c-0.1-0.2-0.2-0.4-0.2-0.6l5.6-2.9h0.1v13.2h3.2
					c0,0.1,0,0.2,0,0.3c0,0.1,0,0.2,0,0.3s0,0.2,0,0.3c0,0.1,0,0.2,0,0.3h-8.2c0-0.1,0-0.3,0-0.6c0-0.1,0-0.3,0-0.4
					c0-0.1,0-0.2,0-0.3h3.4v-11L311.5,173.5z"/>
				<path id="XMLID_5383_" class="st1" d="M321.6,184.2l-0.1-0.3l4.4-4.7c0.4-0.4,0.9-1,1.3-1.4c0.4-0.4,0.7-0.9,1.1-1.4
					c0.3-0.4,0.5-0.9,0.7-1.4c0.2-0.4,0.2-0.9,0.2-1.4c0-1-0.3-1.6-0.9-2.1c-0.5-0.4-1.4-0.6-2.5-0.6c-0.7,0-1.4,0.1-2,0.3
					c-0.5,0.2-1.1,0.4-1.5,0.6c-0.1-0.2-0.1-0.4-0.2-0.6c-0.1-0.2-0.1-0.4-0.2-0.6c0.4-0.2,1-0.4,1.6-0.6s1.5-0.3,2.3-0.3
					c0.7,0,1.4,0.1,2,0.2c0.6,0.2,1.2,0.4,1.6,0.7c0.4,0.3,0.7,0.7,1,1.3c0.2,0.5,0.3,1.2,0.3,1.8c0,0.5-0.1,1-0.2,1.4
					c-0.1,0.4-0.3,1-0.6,1.4c-0.3,0.4-0.6,1-1.1,1.5c-0.4,0.5-1,1.1-1.5,1.6l-2.9,3.1h6.8c0,0.1,0,0.2,0,0.4c0,0.1,0,0.3,0,0.4
					c0,0.1,0,0.2,0,0.3c0,0.1,0,0.2,0,0.3h-9.7L321.6,184.2L321.6,184.2z"/>
				<path id="XMLID_5380_" class="st1" d="M333.2,176.8c0-1.1,0.1-2,0.3-3s0.6-1.7,1.1-2.3c0.4-0.6,1.1-1.2,1.7-1.5
					c0.6-0.3,1.5-0.5,2.3-0.5c0.8,0,1.7,0.2,2.3,0.5c0.6,0.3,1.3,0.9,1.7,1.5c0.4,0.6,0.9,1.5,1.1,2.3c0.2,1,0.3,1.9,0.3,3
					c0,1.1-0.1,2-0.3,3s-0.6,1.7-1.1,2.3c-0.4,0.6-1.1,1.2-1.7,1.5c-0.6,0.3-1.5,0.5-2.3,0.5c-0.8,0-1.7-0.2-2.3-0.5
					c-0.6-0.3-1.3-0.9-1.7-1.5c-0.4-0.6-0.9-1.5-1.1-2.3C333.3,179,333.2,178,333.2,176.8z M338.7,171c-1.3,0-2.2,0.5-2.9,1.5
					c-0.6,1-1.1,2.6-1.1,4.5c0,2,0.3,3.5,1,4.5c0.6,1,1.6,1.5,2.9,1.5c1.3,0,2.2-0.5,2.9-1.5c0.6-1,1-2.6,1-4.5c0-2-0.3-3.5-1-4.5
					C340.9,171.5,340,171,338.7,171z"/>
				<path id="XMLID_5378_" class="st1" d="M352.8,176.8c0,0.1,0,0.2,0,0.3c0,0.1,0,0.3,0,0.4c0,0.1,0,0.2,0,0.4c0,0.1,0,0.2,0,0.3
					h-5.9c0-0.1,0-0.2,0-0.3c0-0.1,0-0.3,0-0.4c0-0.1,0-0.2,0-0.4c0-0.1,0-0.3,0-0.3H352.8z"/>
				<path id="XMLID_5376_" class="st1" d="M357.5,173.5c-0.1-0.1-0.2-0.3-0.3-0.5c-0.1-0.2-0.2-0.4-0.2-0.6l5.6-2.9h0.1v13.2h3.2
					c0,0.1,0,0.2,0,0.3c0,0.1,0,0.2,0,0.3s0,0.2,0,0.3c0,0.1,0,0.2,0,0.3h-8.2c0-0.1,0-0.3,0-0.6c0-0.1,0-0.3,0-0.4
					c0-0.1,0-0.2,0-0.3h3.4v-11L357.5,173.5z"/>
				<path id="XMLID_5372_" class="st1" d="M372.9,184.3c-0.6,0-1.4-0.1-2-0.2c-0.6-0.1-1.3-0.4-1.7-0.7c-0.5-0.3-1-0.7-1.3-1.3
					c-0.3-0.5-0.4-1.2-0.4-2c0-0.6,0.1-1.3,0.3-1.7c0.2-0.5,0.5-1,0.9-1.3c0.3-0.3,0.7-0.6,1.2-0.9c0.4-0.2,0.9-0.4,1.3-0.6
					c-0.4-0.2-0.9-0.3-1.2-0.6c-0.3-0.2-0.6-0.5-1-0.9c-0.3-0.3-0.5-0.6-0.6-1.1c-0.1-0.4-0.2-0.9-0.2-1.4s0.1-1.1,0.3-1.5
					c0.2-0.4,0.5-0.9,1-1.2c0.4-0.3,1-0.5,1.5-0.7s1.2-0.2,1.9-0.2c0.6,0,1.3,0.1,1.9,0.2c0.5,0.2,1.1,0.4,1.5,0.7s0.7,0.7,1,1.2
					c0.2,0.4,0.3,1,0.3,1.5s-0.1,1-0.2,1.4c-0.1,0.4-0.3,0.7-0.6,1.1c-0.3,0.3-0.6,0.6-1,0.9c-0.3,0.2-0.7,0.4-1.2,0.6
					c0.4,0.2,0.9,0.3,1.3,0.6c0.4,0.2,0.9,0.5,1.3,0.9c0.3,0.3,0.6,0.7,0.9,1.3c0.2,0.5,0.3,1.1,0.3,1.7c0,0.7-0.1,1.5-0.4,2
					c-0.3,0.5-0.7,1-1.3,1.3c-0.6,0.3-1.1,0.5-1.7,0.7C374.3,184.3,373.6,184.3,372.9,184.3z M372.9,183c1.3,0,2.1-0.3,2.8-0.9
					c0.6-0.5,1-1.3,1-2.2c0-0.5-0.1-1-0.3-1.3c-0.2-0.4-0.4-0.7-0.7-1s-0.7-0.5-1.2-0.7c-0.4-0.2-1-0.4-1.5-0.5
					c-0.5,0.2-1,0.3-1.5,0.5c-0.4,0.2-0.9,0.4-1.2,0.7s-0.6,0.6-0.7,1.1c-0.2,0.4-0.3,0.9-0.3,1.3c0,1,0.3,1.7,1,2.2
					C370.8,182.7,371.7,183,372.9,183z M372.9,169.3c-1.1,0-1.8,0.2-2.3,0.7c-0.5,0.4-0.7,1.1-0.7,1.9c0,0.4,0.1,0.7,0.3,1.1
					c0.2,0.3,0.4,0.6,0.7,0.9c0.3,0.2,0.6,0.4,1,0.6c0.3,0.2,0.7,0.3,1.2,0.4c0.4-0.1,0.7-0.2,1.2-0.4c0.4-0.2,0.7-0.3,1-0.6
					c0.3-0.2,0.5-0.5,0.7-0.9c0.2-0.3,0.3-0.6,0.3-1.1c0-0.7-0.2-1.4-0.7-1.9C374.7,169.5,374,169.3,372.9,169.3z"/>
				<path id="XMLID_5369_" class="st1" d="M379.2,176.8c0-1.1,0.1-2,0.3-3s0.6-1.7,1.1-2.3c0.4-0.6,1.1-1.2,1.7-1.5
					c0.6-0.3,1.5-0.5,2.3-0.5c0.8,0,1.7,0.2,2.3,0.5c0.6,0.3,1.3,0.9,1.7,1.5c0.4,0.6,0.9,1.5,1.1,2.3c0.2,1,0.3,1.9,0.3,3
					c0,1.1-0.1,2-0.3,3s-0.6,1.7-1.1,2.3c-0.4,0.6-1.1,1.2-1.7,1.5c-0.6,0.3-1.5,0.5-2.3,0.5c-0.8,0-1.7-0.2-2.3-0.5
					c-0.6-0.3-1.3-0.9-1.7-1.5c-0.4-0.6-0.9-1.5-1.1-2.3C379.3,179,379.2,178,379.2,176.8z M384.7,171c-1.3,0-2.2,0.5-2.9,1.5
					c-0.6,1-1.1,2.6-1.1,4.5c0,2,0.3,3.5,1,4.5c0.6,1,1.6,1.5,2.9,1.5c1.3,0,2.2-0.5,2.9-1.5c0.6-1,1-2.6,1-4.5c0-2-0.3-3.5-1-4.5
					S385.9,171,384.7,171z"/>
			</g>
		</g>
		<rect id="XMLID_5365_" x="23.4" y="17.3" class="st5" width="465.2" height="40.9"/>
		<g>
			<path class="st4" d="M36.6,28.2c0.7,0,1.4-0.1,2.1-0.1c0.7,0,1.5-0.1,2.2-0.1c0.7,0,1.5,0.1,2.3,0.2c0.7,0.1,1.5,0.5,2.1,0.9
				c0.6,0.4,1.1,1,1.5,1.7c0.4,0.7,0.6,1.7,0.6,3c0,1.2-0.2,2.1-0.6,2.8s-0.9,1.4-1.5,1.7c-0.6,0.3-1.4,0.7-2.1,0.9
				c-0.7,0.1-1.5,0.2-2.2,0.2c-0.2,0-0.4,0-0.6,0c-0.1,0-0.4,0-0.5,0v5.3c-0.2,0-0.6,0.1-0.9,0.1c-0.2,0-0.5,0-0.7,0
				c-0.2,0-0.5,0-0.7,0c-0.2,0-0.6,0-0.9-0.1L36.6,28.2L36.6,28.2z M39.9,36.5c0.1,0,0.4,0,0.5,0s0.4,0,0.6,0c0.4,0,0.7,0,1.1-0.1
				c0.4-0.1,0.7-0.2,1-0.5c0.2-0.2,0.5-0.5,0.6-0.9c0.1-0.4,0.2-0.9,0.2-1.4c0-0.6-0.1-1-0.2-1.5c-0.1-0.4-0.4-0.7-0.6-1
				c-0.2-0.2-0.6-0.4-1-0.5c-0.4-0.1-0.7-0.1-1.1-0.1c-0.1,0-0.4,0-0.5,0s-0.4,0-0.6,0V36.5z"/>
			<path class="st4" d="M49.9,32.8c0.2,0,0.5-0.1,0.6-0.1c0.2,0,0.4,0,0.6,0c0.2,0,0.5,0,0.6,0c0.2,0,0.5,0.1,0.6,0.1
				c0,0.1,0.1,0.2,0.1,0.4s0.1,0.2,0.1,0.5c0,0.1,0,0.4,0.1,0.5c0,0.1,0,0.2,0,0.4c0.4-0.5,0.7-0.9,1.2-1.2s1.1-0.5,1.9-0.5
				c0.1,0,0.4,0,0.5,0c0.2,0,0.4,0,0.5,0.1c0,0.1,0,0.4,0.1,0.5c0,0.2,0,0.4,0,0.6c0,0.2,0,0.5,0,0.9c0,0.2-0.1,0.6-0.1,0.9
				c-0.1,0-0.4,0-0.6,0c-0.2,0-0.4,0-0.4,0c-0.2,0-0.5,0-0.9,0.1c-0.4,0-0.6,0.2-0.9,0.4c-0.2,0.2-0.5,0.6-0.7,1
				C53,38,53,38.5,53,39.5v5.7c-0.2,0-0.5,0.1-0.9,0.1c-0.2,0-0.5,0-0.7,0c-0.2,0-0.5,0-0.7,0c-0.2,0-0.5,0-0.9-0.1V32.8H49.9z"/>
			<path class="st4" d="M63.8,45c-1,0-1.9-0.1-2.5-0.5c-0.7-0.4-1.2-0.7-1.7-1.4c-0.5-0.5-0.9-1.2-1.1-2c-0.2-0.7-0.4-1.6-0.4-2.5
				c0-0.9,0.1-1.7,0.4-2.5c0.2-0.7,0.6-1.5,1.1-2s1.1-1,1.7-1.4c0.7-0.4,1.5-0.5,2.5-0.5s1.9,0.1,2.5,0.5C67,33,67.7,33.3,68,34
				c0.5,0.6,0.9,1.2,1.1,2c0.2,0.7,0.4,1.6,0.4,2.5c0,0.9-0.1,1.7-0.4,2.5c-0.2,0.7-0.6,1.4-1.1,2c-0.5,0.5-1.1,1-1.7,1.4
				C65.6,44.7,64.7,45,63.8,45z M63.8,42.5c0.9,0,1.5-0.4,1.9-1c0.4-0.6,0.6-1.6,0.6-2.7c0-1.2-0.2-2.1-0.6-2.7c-0.4-0.6-1-1-1.9-1
				c-0.9,0-1.5,0.4-1.9,1c-0.4,0.6-0.6,1.5-0.6,2.7s0.2,2.1,0.6,2.7C62.4,42,62.9,42.5,63.8,42.5z"/>
			<path class="st4" d="M72.8,35.3h-1.9c0-0.2-0.1-0.5-0.1-0.6c0-0.2,0-0.4,0-0.6c0-0.2,0-0.4,0-0.6c0-0.1,0-0.4,0.1-0.6h1.9v-0.6
				c0-0.7,0.1-1.4,0.4-2c0.2-0.6,0.5-1.1,1-1.5c0.4-0.4,0.9-0.7,1.5-0.9c0.6-0.2,1.2-0.2,1.9-0.2c0.5,0,0.9,0,1.1,0
				c0.4,0,0.6,0.1,1,0.2c0,0.5-0.1,1-0.1,1.4c-0.1,0.4-0.1,0.9-0.4,1.2c-0.1,0-0.4-0.1-0.5-0.1c-0.1,0-0.4,0-0.7,0
				c-0.5,0-1,0.1-1.4,0.4c-0.4,0.2-0.5,0.7-0.5,1.6V33h2.7c0,0.2,0.1,0.5,0.1,0.6c0,0.2,0,0.4,0,0.6c0,0.2,0,0.4,0,0.6
				c0,0.1,0,0.4-0.1,0.6h-2.7v9.4c-0.5,0.1-1.1,0.1-1.6,0.1s-1.1,0-1.6-0.1v-9.4H72.8z"/>
			<path class="st4" d="M80.9,32.8c0.5-0.1,1.1-0.1,1.6-0.1s1.1,0,1.6,0.1v6.3c0,0.6,0,1.1,0.1,1.5c0.1,0.4,0.2,0.7,0.5,1
				c0.2,0.2,0.5,0.4,0.7,0.5c0.2,0.1,0.6,0.1,1.1,0.1c0.6,0,1,0,1.4-0.1v-9.3c0.5-0.1,1.1-0.1,1.6-0.1s1.1,0,1.6,0.1v11.4
				c-0.5,0.1-1.1,0.4-2,0.5c-0.7,0.1-1.6,0.2-2.5,0.2c-0.7,0-1.5,0-2.2-0.1c-0.7-0.1-1.4-0.4-1.9-0.7c-0.5-0.4-1-1-1.2-1.7
				c-0.4-0.7-0.5-1.7-0.5-3.1v-6.5H80.9z"/>
			<path class="st4" d="M94.1,32.8c0.2,0,0.4-0.1,0.6-0.1c0.2,0,0.5,0,0.7,0c0.2,0,0.5,0,0.7,0c0.2,0,0.4,0,0.6,0.1
				c0,0.1,0.1,0.1,0.1,0.4c0,0.1,0.1,0.2,0.1,0.5c0,0.1,0,0.4,0.1,0.5c0,0.1,0,0.2,0,0.4c0.1-0.2,0.4-0.5,0.5-0.7
				c0.2-0.2,0.5-0.5,0.7-0.6c0.2-0.1,0.6-0.4,1-0.5c0.4-0.1,0.7-0.1,1.1-0.1c1.4,0,2.3,0.4,3.1,1.1c0.6,0.7,1,1.9,1,3.5v7.5
				c-0.5,0.1-1.1,0.1-1.6,0.1s-1.1,0-1.6-0.1v-6.7c0-0.9-0.1-1.5-0.4-1.9c-0.2-0.5-0.7-0.6-1.4-0.6c-0.2,0-0.5,0-0.7,0.1
				c-0.2,0.1-0.5,0.2-0.7,0.5c-0.2,0.2-0.4,0.5-0.5,1c-0.1,0.4-0.2,0.9-0.2,1.6V45c-0.5,0.1-1.1,0.1-1.6,0.1s-1.1,0-1.6-0.1V33h0
				V32.8z"/>
			<path class="st4" d="M114.6,28c0.2,0,0.5-0.1,0.9-0.1c0.2,0,0.5,0,0.7,0c0.2,0,0.5,0,0.7,0c0.2,0,0.5,0,0.9,0.1v16.3
				c-0.7,0.2-1.5,0.4-2.2,0.5c-0.7,0.1-1.6,0.1-2.7,0.1c-0.9,0-1.6-0.1-2.3-0.4c-0.7-0.2-1.4-0.6-2-1c-0.6-0.5-1-1.1-1.4-1.9
				c-0.4-0.7-0.5-1.7-0.5-2.8c0-0.9,0.1-1.7,0.4-2.5c0.2-0.7,0.7-1.5,1.2-2c0.5-0.6,1.1-1,1.9-1.4c0.7-0.4,1.6-0.5,2.5-0.5
				c0.2,0,0.6,0,0.9,0c0.2,0,0.6,0.1,0.9,0.1v-4.7h0.1V28z M114.6,35.3c-0.2-0.1-0.5-0.1-0.7-0.1c-0.2,0-0.4,0-0.7,0
				c-0.5,0-1,0.1-1.4,0.4c-0.4,0.2-0.7,0.5-0.9,0.9c-0.2,0.4-0.4,0.7-0.5,1.2s-0.1,1-0.1,1.5c0,0.6,0.1,1.1,0.2,1.6s0.4,0.7,0.6,1
				c0.2,0.2,0.6,0.5,1,0.5c0.4,0.1,0.7,0.1,1.2,0.1c0.2,0,0.5,0,0.7,0s0.5-0.1,0.7-0.1v-6.9h-0.1V35.3z"/>
			<path class="st4" d="M121.6,35.3h-1.5c0-0.2-0.1-0.4-0.1-0.6s0-0.5,0-0.6c0-0.4,0-0.9,0.1-1.2h4.7v11.8c-0.5,0.1-1.1,0.1-1.6,0.1
				s-1,0-1.6-0.1V35.3L121.6,35.3z M121.1,30.8c-0.1-0.5-0.1-1-0.1-1.5s0-1,0.1-1.5c0.2,0,0.5-0.1,0.9-0.1c0.2,0,0.6,0,0.9,0
				c0.2,0,0.5,0,0.9,0c0.2,0,0.6,0,0.9,0.1c0,0.2,0.1,0.5,0.1,0.7s0,0.5,0,0.7s0,0.5,0,0.7c0,0.2,0,0.5-0.1,0.7
				c-0.2,0-0.5,0.1-0.9,0.1c-0.2,0-0.6,0-0.9,0c-0.2,0-0.5,0-0.9,0C121.6,30.8,121.4,30.8,121.1,30.8z"/>
			<path class="st4" d="M135.1,28c0.2,0,0.5-0.1,0.9-0.1c0.2,0,0.5,0,0.7,0c0.2,0,0.5,0,0.7,0c0.2,0,0.5,0,0.9,0.1v16.3
				c-0.7,0.2-1.5,0.4-2.2,0.5c-0.7,0.1-1.6,0.1-2.7,0.1c-0.9,0-1.6-0.1-2.3-0.4c-0.7-0.2-1.4-0.6-2-1c-0.6-0.5-1-1.1-1.4-1.9
				c-0.4-0.7-0.5-1.7-0.5-2.8c0-0.9,0.1-1.7,0.4-2.5c0.2-0.7,0.7-1.5,1.2-2c0.5-0.6,1.1-1,1.9-1.4c0.7-0.4,1.6-0.5,2.5-0.5
				c0.2,0,0.6,0,0.9,0c0.2,0,0.6,0.1,0.9,0.1v-4.7h0.1V28z M135.1,35.3c-0.2-0.1-0.5-0.1-0.7-0.1c-0.2,0-0.4,0-0.7,0
				c-0.5,0-1,0.1-1.4,0.4c-0.4,0.2-0.7,0.5-0.9,0.9c-0.2,0.4-0.4,0.7-0.5,1.2s-0.1,1-0.1,1.5c0,0.6,0.1,1.1,0.2,1.6s0.4,0.7,0.6,1
				c0.2,0.2,0.6,0.5,1,0.5c0.4,0.1,0.7,0.1,1.2,0.1c0.2,0,0.5,0,0.7,0s0.5-0.1,0.7-0.1v-6.9h-0.1V35.3z"/>
			<path class="st4" d="M147.3,37c0-0.4,0-0.6-0.1-0.9c-0.1-0.2-0.2-0.4-0.5-0.5c-0.2-0.1-0.5-0.2-0.7-0.2c-0.4,0-0.6-0.1-1-0.1
				c-0.9,0-1.7,0.1-2.6,0.5c-0.2-0.4-0.4-0.7-0.5-1.1c-0.1-0.4-0.1-0.7-0.1-1.2c0.6-0.2,1.4-0.4,2-0.5c0.6-0.1,1.2-0.1,1.9-0.1
				c1.6,0,2.8,0.4,3.7,1.1c0.9,0.7,1.4,2,1.4,3.7v6.7c-0.5,0.1-1.2,0.4-2,0.5c-0.7,0.1-1.6,0.2-2.6,0.2c-0.7,0-1.5-0.1-2.1-0.2
				c-0.6-0.1-1.2-0.4-1.6-0.7c-0.5-0.4-0.9-0.7-1.1-1.2c-0.2-0.5-0.4-1.1-0.4-1.9c0-0.7,0.1-1.4,0.5-1.9c0.4-0.5,0.7-0.9,1.2-1.2
				c0.5-0.2,1-0.5,1.6-0.6c0.6-0.1,1.2-0.2,1.9-0.2c0.5,0,1,0,1.5,0.1v-0.1h-0.4V37z M147.3,39.3c-0.1,0-0.4,0-0.6-0.1
				c-0.2,0-0.4,0-0.6,0c-0.7,0-1.4,0.1-1.7,0.4c-0.4,0.2-0.6,0.7-0.6,1.2c0,0.4,0.1,0.7,0.2,0.9c0.1,0.2,0.4,0.4,0.6,0.5
				c0.2,0.1,0.5,0.1,0.7,0.1c0.2,0,0.5,0,0.7,0s0.5,0,0.7,0c0.2,0,0.4-0.1,0.6-0.1V39.3L147.3,39.3L147.3,39.3z"/>
			<path class="st4" d="M160.4,28c0.2,0,0.5-0.1,0.9-0.1c0.2,0,0.5,0,0.7,0s0.5,0,0.7,0c0.2,0,0.5,0,0.9,0.1v16.3
				c-0.7,0.2-1.5,0.4-2.2,0.5c-0.7,0.1-1.6,0.1-2.7,0.1c-0.9,0-1.6-0.1-2.3-0.4c-0.7-0.2-1.4-0.6-2-1c-0.6-0.5-1-1.1-1.4-1.9
				c-0.4-0.7-0.5-1.7-0.5-2.8c0-0.9,0.1-1.7,0.4-2.5c0.2-0.7,0.7-1.5,1.2-2c0.5-0.6,1.1-1,1.9-1.4c0.7-0.4,1.6-0.5,2.5-0.5
				c0.2,0,0.6,0,0.9,0c0.2,0,0.6,0.1,0.9,0.1v-4.7h0.1V28z M160.4,35.3c-0.2-0.1-0.5-0.1-0.7-0.1c-0.2,0-0.4,0-0.7,0
				c-0.5,0-1,0.1-1.4,0.4c-0.4,0.2-0.7,0.5-1,0.9c-0.2,0.4-0.4,0.7-0.5,1.2s-0.1,1-0.1,1.5c0,0.6,0.1,1.1,0.2,1.6
				c0.1,0.5,0.4,0.7,0.6,1c0.2,0.2,0.6,0.5,1,0.5c0.4,0.1,0.7,0.1,1.2,0.1c0.2,0,0.5,0,0.7,0c0.2,0,0.5-0.1,0.7-0.1v-6.9l0,0V35.3z"
				/>
			<path class="st4" d="M174,48.3c-0.4-0.6-0.7-1.2-1-2c-0.4-0.7-0.6-1.5-0.9-2.3c-0.2-0.9-0.5-1.9-0.6-3c-0.1-1.1-0.2-2.2-0.2-3.6
				c0-1.2,0.1-2.5,0.2-3.6c0.1-1.1,0.4-2.1,0.6-3c0.2-0.9,0.5-1.7,0.9-2.3c0.4-0.7,0.6-1.4,1-1.9c0.1,0,0.4-0.1,0.6-0.1
				c0.2,0,0.6,0,0.9,0c0.2,0,0.6,0,0.9,0c0.2,0,0.6,0.1,0.7,0.1c-0.1,0.2-0.4,0.7-0.7,1.4c-0.2,0.6-0.6,1.4-0.9,2.2
				c-0.2,0.9-0.5,2-0.7,3.1c-0.2,1.2-0.2,2.5-0.2,4.1c0,1.5,0.1,2.8,0.2,4.1c0.2,1.2,0.5,2.2,0.7,3.1c0.2,0.9,0.5,1.6,0.9,2.2
				c0.2,0.6,0.5,1.1,0.7,1.4c-0.2,0-0.5,0.1-0.7,0.1c-0.2,0-0.6,0-0.9,0c-0.4,0-0.6,0-0.9,0C174.3,48.5,174.1,48.5,174,48.3z"/>
			<path class="st4" d="M179.9,28.2c0.2,0,0.6-0.1,0.9-0.1c0.2,0,0.6,0,0.9,0c0.3,0,0.5,0,0.7,0c0.2,0,0.6,0,0.9,0.1v16.4
				c-0.2,0-0.6,0.1-0.9,0.1c-0.2,0-0.5,0-0.9,0s-0.5,0-0.9,0c-0.2,0-0.6,0-0.9-0.1V28.2H179.9z M183.7,36.5l4.4-8.1
				c0.4,0,0.6-0.1,1-0.1c0.2,0,0.6,0,0.9,0c0.2,0,0.5,0,0.9,0c0.4,0,0.6,0.1,1,0.1l-4.4,7.9l4.9,8.5c-0.4,0-0.7,0-1,0.1
				c-0.4,0-0.6,0-0.9,0c-0.2,0-0.5,0-0.9,0c-0.2,0-0.6,0-1-0.1L183.7,36.5z"/>
			<path class="st4" d="M194.1,32.8c0.2,0,0.4-0.1,0.6-0.1c0.2,0,0.5,0,0.7,0c0.2,0,0.5,0,0.7,0c0.2,0,0.4,0,0.6,0.1
				c0,0.1,0.1,0.1,0.1,0.4c0,0.1,0.1,0.2,0.1,0.5c0,0.1,0,0.4,0.1,0.5c0,0.1,0,0.2,0,0.4c0.1-0.2,0.2-0.5,0.5-0.7
				c0.2-0.2,0.4-0.5,0.7-0.6c0.2-0.1,0.6-0.4,1-0.5c0.4-0.1,0.7-0.1,1.1-0.1c1.9,0,3,0.7,3.6,2.1c0.2-0.6,0.7-1.1,1.2-1.5
				c0.6-0.4,1.2-0.6,2.1-0.6c1.4,0,2.3,0.4,3,1.1c0.6,0.7,1,1.9,1,3.5v7.5c-0.5,0.1-1.1,0.1-1.6,0.1s-1.1,0-1.6-0.1v-6.7
				c0-0.9-0.1-1.5-0.2-1.9c-0.2-0.5-0.6-0.6-1.2-0.6c-0.2,0-0.5,0-0.7,0.1c-0.2,0.1-0.5,0.2-0.7,0.4c-0.2,0.2-0.4,0.5-0.5,0.9
				c-0.1,0.4-0.2,0.9-0.2,1.5V45c-0.5,0.1-1.1,0.1-1.6,0.1s-1.1,0-1.6-0.1v-6.7c0-0.9-0.1-1.5-0.2-1.9c-0.2-0.5-0.6-0.6-1.2-0.6
				c-0.2,0-0.5,0-0.7,0.1c-0.2,0.1-0.5,0.2-0.7,0.5c-0.2,0.2-0.4,0.5-0.5,1c-0.1,0.4-0.1,0.9-0.1,1.6v6.2c-0.5,0.1-1.1,0.1-1.6,0.1
				s-1.1,0-1.6-0.1V33h-0.6V32.8z"/>
			<path class="st4" d="M213.7,48.3c0.1-0.2,0.4-0.7,0.7-1.4c0.2-0.6,0.6-1.4,0.9-2.2c0.2-0.9,0.5-2,0.7-3.1
				c0.2-1.2,0.2-2.6,0.2-4.1s-0.1-2.8-0.2-4.1c-0.2-1.2-0.5-2.2-0.7-3.1c-0.2-0.9-0.6-1.6-0.9-2.2c-0.2-0.6-0.5-1.1-0.7-1.4
				c0.2,0,0.5-0.1,0.7-0.1c0.2,0,0.6,0,0.9,0c0.4,0,0.6,0,0.9,0c0.2,0,0.5,0.1,0.6,0.1c0.4,0.6,0.7,1.2,1,1.9
				c0.4,0.7,0.6,1.5,0.9,2.3c0.2,0.9,0.5,1.9,0.6,3c0.1,1.1,0.2,2.2,0.2,3.6c0,1.2-0.1,2.5-0.2,3.6c-0.1,1.1-0.4,2.1-0.6,3
				c-0.2,0.9-0.5,1.7-0.9,2.3c-0.4,0.7-0.6,1.4-1,2c-0.1,0-0.4,0.1-0.6,0.1c-0.2,0-0.6,0-0.9,0c-0.2,0-0.6,0-0.9,0
				C214.2,48.5,213.9,48.5,213.7,48.3z"/>
		</g>
	</g>
</g>
</svg>
